<?xml version="1.0" encoding="iso-8859-1"?>
<!-- Generator: Adobe Illustrator 18.0.0, SVG Export Plug-In . SVG Version: 6.00 Build 0)  -->
<!DOCTYPE svg PUBLIC "-//W3C//DTD SVG 1.1//EN" "http://www.w3.org/Graphics/SVG/1.1/DTD/svg11.dtd">
<svg version="1.1" id="Capa_1" xmlns="http://www.w3.org/2000/svg" xmlns:xlink="http://www.w3.org/1999/xlink" x="0px" y="0px"
	 viewBox="0 0 60 60" style="enable-background:new 0 0 60 60;" xml:space="preserve">
<g>
	<path d="M20,28h1.9l-0.857,9h17.914L38.1,28H40c1.93,0,3.5-1.57,3.5-3.5S41.93,21,40,21h-2.753l1.327-5.971
		c0.165-0.741-0.013-1.506-0.488-2.098S36.902,12,36.143,12H34v-2h0.627C35.936,10,37,8.936,37,7.628V5.372
		C37,4.064,35.936,3,34.627,3H34V2.372C34,1.064,32.936,0,31.627,0h-3.255C27.064,0,26,1.064,26,2.372V3h-0.627
		C24.064,3,23,4.064,23,5.372v2.256C23,8.936,24.064,10,25.373,10H26v2h-2.143c-0.759,0-1.467,0.34-1.942,0.932
		s-0.653,1.356-0.488,2.098L22.753,21H20c-1.93,0-3.5,1.57-3.5,3.5S18.07,28,20,28z M25.373,8C25.167,8,25,7.833,25,7.628V5.372
		C25,5.167,25.167,5,25.373,5H28V2.372C28,2.167,28.167,2,28.373,2h3.255C31.833,2,32,2.167,32,2.372V5h2.627
		C34.833,5,35,5.167,35,5.372v2.256C35,7.833,34.833,8,34.627,8H32v4h-4V8H25.373z M20,23h3.198h13.604H40
		c0.827,0,1.5,0.673,1.5,1.5S40.827,26,40,26h-2.09H22.091H20c-0.827,0-1.5-0.673-1.5-1.5S19.173,23,20,23z"/>
	<path d="M44,53v-1.843c0-2.269-1.829-4.114-4.09-4.15L39.624,44H20.377l-0.286,3.007C17.829,47.043,16,48.888,16,51.157V53h-2v7h32
		v-7H44z"/>
	<polygon points="20.567,42 39.433,42 39.148,39 20.853,39 	"/>
</g>
<g>
</g>
<g>
</g>
<g>
</g>
<g>
</g>
<g>
</g>
<g>
</g>
<g>
</g>
<g>
</g>
<g>
</g>
<g>
</g>
<g>
</g>
<g>
</g>
<g>
</g>
<g>
</g>
<g>
</g>
</svg>
