<?xml version="1.0" encoding="iso-8859-1"?>
<!-- Generator: Adobe Illustrator 18.0.0, SVG Export Plug-In . SVG Version: 6.00 Build 0)  -->
<!DOCTYPE svg PUBLIC "-//W3C//DTD SVG 1.1//EN" "http://www.w3.org/Graphics/SVG/1.1/DTD/svg11.dtd">
<svg version="1.1" id="Capa_1" xmlns="http://www.w3.org/2000/svg" xmlns:xlink="http://www.w3.org/1999/xlink" x="0px" y="0px"
	 viewBox="0 0 60 60" style="enable-background:new 0 0 60 60;" xml:space="preserve">
<g>
	<path d="M20.5,31h1.383l-0.667,6h17.568l-0.667-6H39.5c2.481,0,4.5-2.019,4.5-4.5S41.981,22,39.5,22H35v-3.353
		c2.984-1.732,5-4.955,5-8.647c0-5.514-4.486-10-10-10S20,4.486,20,10c0,3.691,2.016,6.915,5,8.647V22h-4.5
		c-2.481,0-4.5,2.019-4.5,4.5S18.019,31,20.5,31z M29,5c0.552,0,1,0.447,1,1s-0.448,1-1,1c-1.103,0-2,0.897-2,2c0,0.553-0.448,1-1,1
		s-1-0.447-1-1C25,6.794,26.794,5,29,5z M20.5,24H25h10h4.5c1.378,0,2.5,1.121,2.5,2.5S40.878,29,39.5,29h-1.604H22.105H20.5
		c-1.378,0-2.5-1.121-2.5-2.5S19.122,24,20.5,24z"/>
	<polygon points="20.661,42 39.34,42 39.007,39 20.994,39 	"/>
	<path d="M44,53v-1.843c0-2.274-1.837-4.123-4.104-4.152L39.562,44H20.438l-0.334,3.005C17.837,47.034,16,48.883,16,51.157V53h-2v7
		h32v-7H44z"/>
</g>
<g>
</g>
<g>
</g>
<g>
</g>
<g>
</g>
<g>
</g>
<g>
</g>
<g>
</g>
<g>
</g>
<g>
</g>
<g>
</g>
<g>
</g>
<g>
</g>
<g>
</g>
<g>
</g>
<g>
</g>
</svg>
