<?xml version="1.0" encoding="iso-8859-1"?>
<!-- Generator: Adobe Illustrator 18.0.0, SVG Export Plug-In . SVG Version: 6.00 Build 0)  -->
<!DOCTYPE svg PUBLIC "-//W3C//DTD SVG 1.1//EN" "http://www.w3.org/Graphics/SVG/1.1/DTD/svg11.dtd">
<svg version="1.1" id="Capa_1" xmlns="http://www.w3.org/2000/svg" xmlns:xlink="http://www.w3.org/1999/xlink" x="0px" y="0px"
	 viewBox="0 0 60 60" style="enable-background:new 0 0 60 60;" xml:space="preserve">
<g>
	<path d="M20,27h1.905l-0.909,10h18.009l-0.909-10H40c1.93,0,3.5-1.57,3.5-3.5S41.93,20,40,20h-1.484l3.195-7.461l-5.4,1.344
		L32.8,10.391L30,15.057l-2.8-4.666l-3.511,3.492l-5.4-1.344L21.484,20H20c-1.93,0-3.5,1.57-3.5,3.5S18.07,27,20,27z M20,22h2.34
		H37.66H40c0.827,0,1.5,0.673,1.5,1.5S40.827,25,40,25h-2.086H22.087H20c-0.827,0-1.5-0.673-1.5-1.5S19.173,22,20,22z"/>
	<path d="M30,10c2.757,0,5-2.243,5-5s-2.243-5-5-5s-5,2.243-5,5S27.243,10,30,10z"/>
	<path d="M44,53v-1.843c0-2.268-1.827-4.111-4.086-4.15L39.641,44H20.359l-0.273,3.007C17.827,47.046,16,48.889,16,51.157V53h-2v7
		h32v-7H44z"/>
	<polygon points="20.541,42 39.459,42 39.186,39 20.814,39 	"/>
</g>
<g>
</g>
<g>
</g>
<g>
</g>
<g>
</g>
<g>
</g>
<g>
</g>
<g>
</g>
<g>
</g>
<g>
</g>
<g>
</g>
<g>
</g>
<g>
</g>
<g>
</g>
<g>
</g>
<g>
</g>
</svg>
