<?xml version="1.0" encoding="iso-8859-1"?>
<!-- Generator: Adobe Illustrator 18.0.0, SVG Export Plug-In . SVG Version: 6.00 Build 0)  -->
<!DOCTYPE svg PUBLIC "-//W3C//DTD SVG 1.1//EN" "http://www.w3.org/Graphics/SVG/1.1/DTD/svg11.dtd">
<svg version="1.1" id="Capa_1" xmlns="http://www.w3.org/2000/svg" xmlns:xlink="http://www.w3.org/1999/xlink" x="0px" y="0px"
	 viewBox="0 0 55 55" style="enable-background:new 0 0 55 55;" xml:space="preserve">
<g>
	<path d="M41,18.5c0-1.515-0.974-2.796-2.324-3.282L39.32,12H15.68l0.644,3.218C14.974,15.704,14,16.985,14,18.5
		c0,1.93,1.57,3.5,3.5,3.5h1.905l-0.909,10h18.009l-0.909-10H37.5C39.43,22,41,20.43,41,18.5z M19.587,20H17.5
		c-0.827,0-1.5-0.673-1.5-1.5s0.673-1.5,1.5-1.5h20c0.827,0,1.5,0.673,1.5,1.5S38.327,20,37.5,20h-2.086H19.587z"/>
	<polygon points="18.041,37 36.959,37 36.686,34 18.314,34 	"/>
	<path d="M41.5,48v-1.843c0-2.268-1.827-4.111-4.086-4.15L37.141,39H17.859l-0.273,3.007c-2.259,0.039-4.086,1.882-4.086,4.15V48h-2
		v7h32v-7H41.5z"/>
	<polygon points="39.72,10 41.72,0 35.68,0 34.68,5 31.5,5 31.5,0 23.5,0 23.5,5 21.177,5 19.177,0 13.28,0 15.28,10 	"/>
</g>
<g>
</g>
<g>
</g>
<g>
</g>
<g>
</g>
<g>
</g>
<g>
</g>
<g>
</g>
<g>
</g>
<g>
</g>
<g>
</g>
<g>
</g>
<g>
</g>
<g>
</g>
<g>
</g>
<g>
</g>
</svg>
